<?xml version="1.0" encoding="UTF-8"?><svg width="7.24mm" height="8.0771mm" version="1.1" viewBox="0 0 7.24 8.0771" xmlns="http://www.w3.org/2000/svg"> <g fill="#ffc505"><g transform="translate(-65.581 -90.873)" stroke-width=".26458"><g transform="matrix(1 0 0 1 -15.169 -.024997)" fill="#ffc505" aria-label="a"><g stroke-width=".070004" aria-label="a"><path d="m84.881 95.663c-0.56499 0-1.3653 0.07235-1.5893 0.21704-0.22393 0.14469-0.3359 0.39274-0.3359 0.74414 0 0.26183 0.07751 0.47025 0.23254 0.62528s0.5616 0.2795 0.82687 0.2795c0.39963 0 0.91915-0.19682 1.1396-0.49654 0.22048-0.30317 0.33073-0.72519 0.33073-1.2661v-0.10335zm2.1084-0.58394v3.3021h-1.5038v-0.64595c-0.18259 0.25494-0.41686 0.45131-0.7028 0.58911s-0.60117 0.20671-0.94568 0.20671c-0.65801 0-1.1713-0.17398-1.54-0.52193-0.36518-0.34795-0.54777-0.83371-0.54777-1.4573 0-0.67524 0.21876-1.1731 0.65629-1.4934 0.43752-0.32384 1.1145-0.48576 2.0309-0.48576h1.049v-0.25321c0-0.2446-0.08957-0.42891-0.26872-0.55294-0.1757-0.12747-0.4358-0.1912-0.78031-0.1912-0.36173 0-0.71313 0.04651-1.0542 0.13953-0.33762 0.08957-0.69074 0.23427-1.0594 0.43408v-1.2919c0.33417-0.1378 0.67351-0.23943 1.018-0.30489 0.34451-0.06546 0.70969-0.09819 1.0955-0.09819 0.94051 0 1.6002 0.1912 1.9792 0.57361 0.3824 0.3824 0.57361 1.0663 0.57361 2.0515z"/></g></g></g></g></svg>
