<?xml version="1.0" encoding="UTF-8"?><svg width="191.4" height="166.09" version="1.1" viewBox="0 0 50.643 43.946" xmlns="http://www.w3.org/2000/svg"><defs><filter id="filter1258" x="-9.8621e-6" y="-1.1935e-5" width="1" height="1" color-interpolation-filters="sRGB"> <feGaussianBlur/></filter><filter id="filter1356" x="-.00017307" y="-.00014988" width="1.0003" height="1.0003" color-interpolation-filters="sRGB"> <feGaussianBlur stdDeviation="0.003328127"/></filter><filter id="filter1360" x="-.00017307" y="-.00014988" width="1.0003" height="1.0003" color-interpolation-filters="sRGB"> <feGaussianBlur stdDeviation="0.003328127"/></filter><filter id="filter1364" x="-.00017307" y="-.00014988" width="1.0003" height="1.0003" color-interpolation-filters="sRGB"> <feGaussianBlur stdDeviation="0.003328127"/></filter><filter id="filter1368" x="-.00017307" y="-.00014988" width="1.0003" height="1.0003" color-interpolation-filters="sRGB"> <feGaussianBlur stdDeviation="0.003328127"/></filter></defs><g filter="url(#filter1258)" stroke="#0e111e"><g transform="translate(-.23811)" stroke-width=".82"> <path transform="matrix(.54873 0 0 .54974 13.188 -14.649)" d="m23.076 53.293-23.076-13.323-7.1398e-7 -26.646 23.076-13.323 23.076 13.323 1e-6 26.646z" fill="#20242d" stop-color="#000000"/> <path transform="matrix(.54873 0 0 .54974 .52527 7.3242)" d="m23.076 53.293-23.076-13.323-7.1398e-7 -26.646 23.076-13.323 23.076 13.323 1e-6 26.646z" fill="#1a1f2a" stop-color="#000000"/> <path transform="matrix(.54873 0 0 .54974 25.85 7.3242)" d="m23.076 53.293-23.076-13.323-7.1398e-7 -26.646 23.076-13.323 23.076 13.323 1e-6 26.646z" fill="#262931" stop-color="#000000"/></g><path transform="matrix(.54873 0 0 .54974 -12.375 -14.648)" d="m23.076 53.293-23.076-13.323-7.1398e-7 -26.646 23.076-13.323 23.076 13.323 1e-6 26.646z" fill="#272931" filter="url(#filter1360)" stop-color="#000000" stroke-width=".82"/><path d="m25.612 58.594-12.662-7.3242-1e-6 -14.648 12.662-7.3242 12.662 7.3242 1e-6 14.648z" fill="#20242d" stop-color="#000000" stroke-width=".45037"/><g transform="translate(-.23811)" fill="#272931" stroke-width=".82"> <path transform="matrix(.54873 0 0 .54974 -12.137 29.297)" d="m23.076 53.293-23.076-13.323-7.1398e-7 -26.646 23.076-13.323 23.076 13.323 1e-6 26.646z" filter="url(#filter1364)" stop-color="#000000"/> <path transform="matrix(.54873 0 0 .54974 38.513 -14.649)" d="m23.076 53.293-23.076-13.323-7.1398e-7 -26.646 23.076-13.323 23.076 13.323 1e-6 26.646z" filter="url(#filter1356)" stop-color="#000000"/> <path transform="matrix(.54873 0 0 .54974 38.513 29.297)" d="m23.076 53.293-23.076-13.323-7.1398e-7 -26.646 23.076-13.323 23.076 13.323 1e-6 26.646z" filter="url(#filter1368)" stop-color="#000000"/></g></g></svg>
